<mxfile host="app.diagrams.net" agent="Mozilla/5.0 (Macintosh; Intel Mac OS X 10.15; rv:130.0) Gecko/20100101 Firefox/130.0" version="24.7.16">
  <diagram name="Page-1" id="o5vh6sh_1AicP6zQ3jXB">
    <mxGraphModel dx="1648" dy="1275" grid="1" gridSize="10" guides="1" tooltips="1" connect="1" arrows="1" fold="1" page="1" pageScale="1" pageWidth="850" pageHeight="1100" math="0" shadow="0">
      <root>
        <mxCell id="0" />
        <mxCell id="1" parent="0" />
        <mxCell id="Uzpc0EBQCf9kwFH2nIfT-22" style="edgeStyle=orthogonalEdgeStyle;rounded=0;orthogonalLoop=1;jettySize=auto;html=1;exitX=0;exitY=0.5;exitDx=0;exitDy=0;entryX=1.016;entryY=0.128;entryDx=0;entryDy=0;entryPerimeter=0;endArrow=none;endFill=0;shape=link;" edge="1" parent="1">
          <mxGeometry relative="1" as="geometry">
            <mxPoint x="160" y="440" as="sourcePoint" />
            <mxPoint x="82.55999999999995" y="439.8399999999999" as="targetPoint" />
          </mxGeometry>
        </mxCell>
        <mxCell id="Uzpc0EBQCf9kwFH2nIfT-24" value="media_genre" style="shape=rhombus;double=1;perimeter=rhombusPerimeter;whiteSpace=wrap;html=1;align=center;" vertex="1" parent="1">
          <mxGeometry x="160" y="408" width="120" height="60" as="geometry" />
        </mxCell>
        <mxCell id="Uzpc0EBQCf9kwFH2nIfT-25" value="&lt;div&gt;media_collecrion&lt;/div&gt;" style="shape=rhombus;perimeter=rhombusPerimeter;whiteSpace=wrap;html=1;align=center;" vertex="1" parent="1">
          <mxGeometry x="160" y="537" width="120" height="60" as="geometry" />
        </mxCell>
        <mxCell id="Uzpc0EBQCf9kwFH2nIfT-30" style="edgeStyle=orthogonalEdgeStyle;rounded=0;orthogonalLoop=1;jettySize=auto;html=1;exitX=0;exitY=0.5;exitDx=0;exitDy=0;entryX=1;entryY=0;entryDx=0;entryDy=0;endArrow=none;endFill=0;" edge="1" parent="1" source="Uzpc0EBQCf9kwFH2nIfT-25" target="Uzpc0EBQCf9kwFH2nIfT-66">
          <mxGeometry relative="1" as="geometry">
            <mxPoint x="82.23999999999978" y="609.0000000000002" as="targetPoint" />
          </mxGeometry>
        </mxCell>
        <mxCell id="Uzpc0EBQCf9kwFH2nIfT-38" style="edgeStyle=orthogonalEdgeStyle;rounded=0;orthogonalLoop=1;jettySize=auto;html=1;exitX=0;exitY=0.5;exitDx=0;exitDy=0;entryX=1;entryY=0;entryDx=0;entryDy=0;endArrow=classic;endFill=1;shape=link;" edge="1" parent="1" source="Uzpc0EBQCf9kwFH2nIfT-40" target="Uzpc0EBQCf9kwFH2nIfT-72">
          <mxGeometry relative="1" as="geometry">
            <mxPoint x="260" y="820.0000000000002" as="sourcePoint" />
            <mxPoint x="82.24000000000001" y="819" as="targetPoint" />
          </mxGeometry>
        </mxCell>
        <mxCell id="Uzpc0EBQCf9kwFH2nIfT-40" value="media_episode" style="shape=rhombus;double=1;perimeter=rhombusPerimeter;whiteSpace=wrap;html=1;align=center;" vertex="1" parent="1">
          <mxGeometry x="140" y="650" width="120" height="60" as="geometry" />
        </mxCell>
        <mxCell id="Uzpc0EBQCf9kwFH2nIfT-47" style="edgeStyle=orthogonalEdgeStyle;rounded=0;orthogonalLoop=1;jettySize=auto;html=1;exitX=0;exitY=0.5;exitDx=0;exitDy=0;endArrow=classic;endFill=1;shape=link;entryX=1;entryY=0;entryDx=0;entryDy=0;" edge="1" parent="1" target="Uzpc0EBQCf9kwFH2nIfT-74" source="Uzpc0EBQCf9kwFH2nIfT-48">
          <mxGeometry relative="1" as="geometry">
            <mxPoint x="260" y="970.0000000000002" as="sourcePoint" />
            <mxPoint x="90" y="920" as="targetPoint" />
          </mxGeometry>
        </mxCell>
        <mxCell id="Uzpc0EBQCf9kwFH2nIfT-48" value="&lt;div&gt;media_season&lt;/div&gt;" style="shape=rhombus;double=1;perimeter=rhombusPerimeter;whiteSpace=wrap;html=1;align=center;" vertex="1" parent="1">
          <mxGeometry x="170" y="720" width="120" height="60" as="geometry" />
        </mxCell>
        <mxCell id="Uzpc0EBQCf9kwFH2nIfT-51" style="edgeStyle=orthogonalEdgeStyle;rounded=0;orthogonalLoop=1;jettySize=auto;html=1;exitX=1;exitY=0.5;exitDx=0;exitDy=0;entryX=0.173;entryY=1.027;entryDx=0;entryDy=0;entryPerimeter=0;" edge="1" parent="1" source="Uzpc0EBQCf9kwFH2nIfT-48" target="Uzpc0EBQCf9kwFH2nIfT-60">
          <mxGeometry relative="1" as="geometry">
            <mxPoint x="483.55999999999995" y="696.4940000000004" as="targetPoint" />
          </mxGeometry>
        </mxCell>
        <mxCell id="Uzpc0EBQCf9kwFH2nIfT-68" style="edgeStyle=orthogonalEdgeStyle;rounded=0;orthogonalLoop=1;jettySize=auto;html=1;exitX=0;exitY=0.5;exitDx=0;exitDy=0;endArrow=none;endFill=0;entryX=1;entryY=0.5;entryDx=0;entryDy=0;" edge="1" parent="1" source="Uzpc0EBQCf9kwFH2nIfT-53" target="Uzpc0EBQCf9kwFH2nIfT-56">
          <mxGeometry relative="1" as="geometry">
            <mxPoint x="-90" y="535.3076923076922" as="targetPoint" />
          </mxGeometry>
        </mxCell>
        <mxCell id="Uzpc0EBQCf9kwFH2nIfT-53" value="media_score" style="shape=rhombus;perimeter=rhombusPerimeter;whiteSpace=wrap;html=1;align=center;" vertex="1" parent="1">
          <mxGeometry x="80" y="490" width="120" height="60" as="geometry" />
        </mxCell>
        <mxCell id="Uzpc0EBQCf9kwFH2nIfT-56" value="Score" style="swimlane;childLayout=stackLayout;horizontal=1;startSize=50;horizontalStack=0;rounded=1;fontSize=14;fontStyle=0;strokeWidth=2;resizeParent=0;resizeLast=1;shadow=0;dashed=0;align=center;arcSize=4;whiteSpace=wrap;html=1;" vertex="1" parent="1">
          <mxGeometry x="-280" y="443" width="160" height="127" as="geometry" />
        </mxCell>
        <mxCell id="Uzpc0EBQCf9kwFH2nIfT-57" value="score_id&lt;br&gt;source&lt;br&gt;&lt;div&gt;value&lt;/div&gt;&lt;div&gt;vote_count&lt;/div&gt;&lt;div&gt;at&lt;/div&gt;&lt;div&gt;&lt;br&gt;&lt;/div&gt;" style="align=left;strokeColor=none;fillColor=none;spacingLeft=4;fontSize=12;verticalAlign=top;resizable=0;rotatable=0;part=1;html=1;" vertex="1" parent="Uzpc0EBQCf9kwFH2nIfT-56">
          <mxGeometry y="50" width="160" height="77" as="geometry" />
        </mxCell>
        <mxCell id="Uzpc0EBQCf9kwFH2nIfT-59" value="media" style="swimlane;childLayout=stackLayout;horizontal=1;startSize=50;horizontalStack=0;rounded=1;fontSize=14;fontStyle=0;strokeWidth=2;resizeParent=0;resizeLast=1;shadow=0;dashed=0;align=center;arcSize=4;whiteSpace=wrap;html=1;fillColor=#f8cecc;strokeColor=#b85450;" vertex="1" parent="1">
          <mxGeometry x="360" y="400" width="160" height="196" as="geometry" />
        </mxCell>
        <mxCell id="Uzpc0EBQCf9kwFH2nIfT-60" value="&lt;div&gt;&lt;u&gt;media_id&lt;/u&gt;&lt;/div&gt;&lt;div&gt;type&lt;/div&gt;&lt;div&gt;plot&lt;/div&gt;&lt;div&gt;runtime&lt;/div&gt;&lt;div&gt;box_office&lt;/div&gt;&lt;div&gt;budget&lt;/div&gt;&lt;div&gt;imdb_id&lt;/div&gt;&lt;div&gt;website&lt;/div&gt;&lt;div&gt;awards&lt;br&gt;&lt;/div&gt;&lt;div&gt;&lt;br/&gt;&lt;/div&gt;" style="align=left;strokeColor=none;fillColor=none;spacingLeft=4;fontSize=12;verticalAlign=top;resizable=0;rotatable=0;part=1;html=1;" vertex="1" parent="Uzpc0EBQCf9kwFH2nIfT-59">
          <mxGeometry y="50" width="160" height="146" as="geometry" />
        </mxCell>
        <mxCell id="Uzpc0EBQCf9kwFH2nIfT-62" style="edgeStyle=orthogonalEdgeStyle;rounded=0;orthogonalLoop=1;jettySize=auto;html=1;exitX=1;exitY=0.5;exitDx=0;exitDy=0;entryX=-0.002;entryY=0.193;entryDx=0;entryDy=0;entryPerimeter=0;" edge="1" parent="1" source="Uzpc0EBQCf9kwFH2nIfT-24" target="Uzpc0EBQCf9kwFH2nIfT-59">
          <mxGeometry relative="1" as="geometry" />
        </mxCell>
        <mxCell id="Uzpc0EBQCf9kwFH2nIfT-63" value="genre" style="swimlane;childLayout=stackLayout;horizontal=1;startSize=50;horizontalStack=0;rounded=1;fontSize=14;fontStyle=0;strokeWidth=2;resizeParent=0;resizeLast=1;shadow=0;dashed=0;align=center;arcSize=4;whiteSpace=wrap;html=1;" vertex="1" parent="1">
          <mxGeometry x="-80" y="385" width="160" height="85" as="geometry" />
        </mxCell>
        <mxCell id="Uzpc0EBQCf9kwFH2nIfT-64" value="name" style="align=left;strokeColor=none;fillColor=none;spacingLeft=4;fontSize=12;verticalAlign=top;resizable=0;rotatable=0;part=1;html=1;" vertex="1" parent="Uzpc0EBQCf9kwFH2nIfT-63">
          <mxGeometry y="50" width="160" height="35" as="geometry" />
        </mxCell>
        <mxCell id="Uzpc0EBQCf9kwFH2nIfT-65" value="colection" style="swimlane;childLayout=stackLayout;horizontal=1;startSize=50;horizontalStack=0;rounded=1;fontSize=14;fontStyle=0;strokeWidth=2;resizeParent=0;resizeLast=1;shadow=0;dashed=0;align=center;arcSize=4;whiteSpace=wrap;html=1;" vertex="1" parent="1">
          <mxGeometry x="-80" y="550" width="160" height="107" as="geometry" />
        </mxCell>
        <mxCell id="Uzpc0EBQCf9kwFH2nIfT-66" value="&lt;div&gt;&lt;u&gt;colecrion_id&lt;/u&gt;&lt;/div&gt;&lt;div&gt;name&lt;/div&gt;&lt;div&gt;description&lt;br&gt;&lt;/div&gt;" style="align=left;strokeColor=none;fillColor=none;spacingLeft=4;fontSize=12;verticalAlign=top;resizable=0;rotatable=0;part=1;html=1;" vertex="1" parent="Uzpc0EBQCf9kwFH2nIfT-65">
          <mxGeometry y="50" width="160" height="57" as="geometry" />
        </mxCell>
        <mxCell id="Uzpc0EBQCf9kwFH2nIfT-67" style="edgeStyle=orthogonalEdgeStyle;rounded=0;orthogonalLoop=1;jettySize=auto;html=1;exitX=1;exitY=0.5;exitDx=0;exitDy=0;entryX=0;entryY=0.25;entryDx=0;entryDy=0;" edge="1" parent="1" source="Uzpc0EBQCf9kwFH2nIfT-53" target="Uzpc0EBQCf9kwFH2nIfT-60">
          <mxGeometry relative="1" as="geometry" />
        </mxCell>
        <mxCell id="Uzpc0EBQCf9kwFH2nIfT-69" style="edgeStyle=orthogonalEdgeStyle;rounded=0;orthogonalLoop=1;jettySize=auto;html=1;exitX=1;exitY=0.5;exitDx=0;exitDy=0;entryX=0;entryY=0.5;entryDx=0;entryDy=0;endArrow=none;endFill=0;" edge="1" parent="1" source="Uzpc0EBQCf9kwFH2nIfT-25" target="Uzpc0EBQCf9kwFH2nIfT-60">
          <mxGeometry relative="1" as="geometry" />
        </mxCell>
        <mxCell id="Uzpc0EBQCf9kwFH2nIfT-71" value="episode" style="swimlane;childLayout=stackLayout;horizontal=1;startSize=50;horizontalStack=0;rounded=1;fontSize=14;fontStyle=0;strokeWidth=2;resizeParent=0;resizeLast=1;shadow=0;dashed=0;align=center;arcSize=4;whiteSpace=wrap;html=1;" vertex="1" parent="1">
          <mxGeometry x="-120" y="740" width="160" height="90" as="geometry" />
        </mxCell>
        <mxCell id="Uzpc0EBQCf9kwFH2nIfT-72" value="&lt;div&gt;episode_number&lt;/div&gt;&lt;div&gt;season_id&lt;br&gt;&lt;/div&gt;" style="align=left;strokeColor=none;fillColor=none;spacingLeft=4;fontSize=12;verticalAlign=top;resizable=0;rotatable=0;part=1;html=1;" vertex="1" parent="Uzpc0EBQCf9kwFH2nIfT-71">
          <mxGeometry y="50" width="160" height="40" as="geometry" />
        </mxCell>
        <mxCell id="Uzpc0EBQCf9kwFH2nIfT-73" value="season" style="swimlane;childLayout=stackLayout;horizontal=1;startSize=50;horizontalStack=0;rounded=1;fontSize=14;fontStyle=0;strokeWidth=2;resizeParent=0;resizeLast=1;shadow=0;dashed=0;align=center;arcSize=4;whiteSpace=wrap;html=1;" vertex="1" parent="1">
          <mxGeometry x="-80" y="890" width="160" height="120" as="geometry" />
        </mxCell>
        <mxCell id="Uzpc0EBQCf9kwFH2nIfT-74" value="&lt;div&gt;status&lt;/div&gt;&lt;div&gt;season_number&lt;/div&gt;&lt;div&gt;end_date&lt;/div&gt;&lt;div&gt;series_id&lt;br&gt;&lt;/div&gt;" style="align=left;strokeColor=none;fillColor=none;spacingLeft=4;fontSize=12;verticalAlign=top;resizable=0;rotatable=0;part=1;html=1;" vertex="1" parent="Uzpc0EBQCf9kwFH2nIfT-73">
          <mxGeometry y="50" width="160" height="70" as="geometry" />
        </mxCell>
        <mxCell id="Uzpc0EBQCf9kwFH2nIfT-75" style="edgeStyle=orthogonalEdgeStyle;rounded=0;orthogonalLoop=1;jettySize=auto;html=1;exitX=1;exitY=0.5;exitDx=0;exitDy=0;entryX=0.001;entryY=0.898;entryDx=0;entryDy=0;entryPerimeter=0;" edge="1" parent="1" source="Uzpc0EBQCf9kwFH2nIfT-40" target="Uzpc0EBQCf9kwFH2nIfT-60">
          <mxGeometry relative="1" as="geometry" />
        </mxCell>
        <mxCell id="Uzpc0EBQCf9kwFH2nIfT-82" value="prod comp" style="swimlane;childLayout=stackLayout;horizontal=1;startSize=50;horizontalStack=0;rounded=1;fontSize=14;fontStyle=0;strokeWidth=2;resizeParent=0;resizeLast=1;shadow=0;dashed=0;align=center;arcSize=4;whiteSpace=wrap;html=1;" vertex="1" parent="1">
          <mxGeometry x="200" y="50" width="160" height="120" as="geometry" />
        </mxCell>
        <mxCell id="Uzpc0EBQCf9kwFH2nIfT-83" value="&lt;div&gt;&lt;u&gt;production_comp_id&lt;/u&gt;&lt;/div&gt;&lt;div&gt;name&lt;/div&gt;&lt;div&gt;description&lt;br&gt;&lt;/div&gt;" style="align=left;strokeColor=none;fillColor=none;spacingLeft=4;fontSize=12;verticalAlign=top;resizable=0;rotatable=0;part=1;html=1;" vertex="1" parent="Uzpc0EBQCf9kwFH2nIfT-82">
          <mxGeometry y="50" width="160" height="70" as="geometry" />
        </mxCell>
        <mxCell id="Uzpc0EBQCf9kwFH2nIfT-85" style="edgeStyle=orthogonalEdgeStyle;rounded=0;orthogonalLoop=1;jettySize=auto;html=1;exitX=1;exitY=0.5;exitDx=0;exitDy=0;entryX=0.25;entryY=0;entryDx=0;entryDy=0;endArrow=none;endFill=0;" edge="1" parent="1" source="Uzpc0EBQCf9kwFH2nIfT-84" target="Uzpc0EBQCf9kwFH2nIfT-59">
          <mxGeometry relative="1" as="geometry" />
        </mxCell>
        <mxCell id="Uzpc0EBQCf9kwFH2nIfT-84" value="related_media" style="shape=rhombus;perimeter=rhombusPerimeter;whiteSpace=wrap;html=1;align=center;" vertex="1" parent="1">
          <mxGeometry x="260" y="270" width="120" height="60" as="geometry" />
        </mxCell>
        <mxCell id="Uzpc0EBQCf9kwFH2nIfT-86" style="edgeStyle=orthogonalEdgeStyle;rounded=0;orthogonalLoop=1;jettySize=auto;html=1;exitX=0.5;exitY=1;exitDx=0;exitDy=0;entryX=0.002;entryY=0.138;entryDx=0;entryDy=0;entryPerimeter=0;endArrow=none;endFill=0;" edge="1" parent="1" source="Uzpc0EBQCf9kwFH2nIfT-84" target="Uzpc0EBQCf9kwFH2nIfT-59">
          <mxGeometry relative="1" as="geometry" />
        </mxCell>
        <mxCell id="Uzpc0EBQCf9kwFH2nIfT-89" style="edgeStyle=orthogonalEdgeStyle;rounded=0;orthogonalLoop=1;jettySize=auto;html=1;exitX=0.5;exitY=1;exitDx=0;exitDy=0;entryX=0.5;entryY=0;entryDx=0;entryDy=0;endArrow=none;endFill=0;" edge="1" parent="1" source="Uzpc0EBQCf9kwFH2nIfT-87" target="Uzpc0EBQCf9kwFH2nIfT-59">
          <mxGeometry relative="1" as="geometry" />
        </mxCell>
        <mxCell id="Uzpc0EBQCf9kwFH2nIfT-90" style="edgeStyle=orthogonalEdgeStyle;rounded=0;orthogonalLoop=1;jettySize=auto;html=1;exitX=0.5;exitY=0;exitDx=0;exitDy=0;entryX=1;entryY=0.25;entryDx=0;entryDy=0;" edge="1" parent="1" source="Uzpc0EBQCf9kwFH2nIfT-87" target="Uzpc0EBQCf9kwFH2nIfT-83">
          <mxGeometry relative="1" as="geometry" />
        </mxCell>
        <mxCell id="Uzpc0EBQCf9kwFH2nIfT-87" value="media_prod_comp" style="shape=rhombus;perimeter=rhombusPerimeter;whiteSpace=wrap;html=1;align=center;" vertex="1" parent="1">
          <mxGeometry x="380" y="210" width="120" height="60" as="geometry" />
        </mxCell>
        <mxCell id="Uzpc0EBQCf9kwFH2nIfT-91" value="person" style="swimlane;childLayout=stackLayout;horizontal=1;startSize=50;horizontalStack=0;rounded=1;fontSize=14;fontStyle=0;strokeWidth=2;resizeParent=0;resizeLast=1;shadow=0;dashed=0;align=center;arcSize=4;whiteSpace=wrap;html=1;" vertex="1" parent="1">
          <mxGeometry x="790" y="408" width="160" height="162.5" as="geometry" />
        </mxCell>
        <mxCell id="Uzpc0EBQCf9kwFH2nIfT-92" value="&lt;div&gt;&lt;u&gt;person_id&lt;/u&gt;&lt;/div&gt;&lt;div&gt;name&lt;/div&gt;&lt;div&gt;birth_date&lt;/div&gt;&lt;div&gt;death_date&lt;/div&gt;&lt;div&gt;description&lt;/div&gt;&lt;div&gt;score&lt;/div&gt;&lt;div&gt;imdb_id&lt;br&gt;&lt;/div&gt;" style="align=left;strokeColor=none;fillColor=none;spacingLeft=4;fontSize=12;verticalAlign=top;resizable=0;rotatable=0;part=1;html=1;" vertex="1" parent="Uzpc0EBQCf9kwFH2nIfT-91">
          <mxGeometry y="50" width="160" height="112.5" as="geometry" />
        </mxCell>
        <mxCell id="Uzpc0EBQCf9kwFH2nIfT-99" style="edgeStyle=orthogonalEdgeStyle;rounded=0;orthogonalLoop=1;jettySize=auto;html=1;endArrow=none;endFill=0;dashed=1;" edge="1" parent="1" source="Uzpc0EBQCf9kwFH2nIfT-93">
          <mxGeometry relative="1" as="geometry">
            <mxPoint x="660" y="590" as="targetPoint" />
          </mxGeometry>
        </mxCell>
        <mxCell id="Uzpc0EBQCf9kwFH2nIfT-93" value="cast_member" style="shape=rhombus;perimeter=rhombusPerimeter;whiteSpace=wrap;html=1;align=center;" vertex="1" parent="1">
          <mxGeometry x="600" y="470" width="120" height="60" as="geometry" />
        </mxCell>
        <mxCell id="Uzpc0EBQCf9kwFH2nIfT-94" style="edgeStyle=orthogonalEdgeStyle;rounded=0;orthogonalLoop=1;jettySize=auto;html=1;exitX=0;exitY=0.5;exitDx=0;exitDy=0;entryX=1.038;entryY=0.351;entryDx=0;entryDy=0;entryPerimeter=0;endArrow=none;endFill=0;" edge="1" parent="1" source="Uzpc0EBQCf9kwFH2nIfT-93" target="Uzpc0EBQCf9kwFH2nIfT-60">
          <mxGeometry relative="1" as="geometry" />
        </mxCell>
        <mxCell id="Uzpc0EBQCf9kwFH2nIfT-95" style="edgeStyle=orthogonalEdgeStyle;rounded=0;orthogonalLoop=1;jettySize=auto;html=1;exitX=1;exitY=0.5;exitDx=0;exitDy=0;" edge="1" parent="1" source="Uzpc0EBQCf9kwFH2nIfT-93">
          <mxGeometry relative="1" as="geometry">
            <mxPoint x="790" y="500" as="targetPoint" />
          </mxGeometry>
        </mxCell>
        <mxCell id="Uzpc0EBQCf9kwFH2nIfT-98" value="&lt;div&gt;role&lt;/div&gt;&lt;div&gt;character&lt;br&gt;&lt;/div&gt;" style="whiteSpace=wrap;html=1;align=center;" vertex="1" parent="1">
          <mxGeometry x="610" y="590" width="100" height="40" as="geometry" />
        </mxCell>
        <mxCell id="Uzpc0EBQCf9kwFH2nIfT-100" value="crew_member" style="swimlane;childLayout=stackLayout;horizontal=1;startSize=50;horizontalStack=0;rounded=1;fontSize=14;fontStyle=0;strokeWidth=2;resizeParent=0;resizeLast=1;shadow=0;dashed=0;align=center;arcSize=4;whiteSpace=wrap;html=1;" vertex="1" parent="1">
          <mxGeometry x="630" y="200" width="160" height="120" as="geometry" />
        </mxCell>
        <mxCell id="Uzpc0EBQCf9kwFH2nIfT-101" value="&lt;div&gt;&lt;u&gt;crew member_id&lt;/u&gt;&lt;/div&gt;&lt;div&gt;role&lt;br&gt;&lt;/div&gt;" style="align=left;strokeColor=none;fillColor=none;spacingLeft=4;fontSize=12;verticalAlign=top;resizable=0;rotatable=0;part=1;html=1;" vertex="1" parent="Uzpc0EBQCf9kwFH2nIfT-100">
          <mxGeometry y="50" width="160" height="70" as="geometry" />
        </mxCell>
        <mxCell id="Uzpc0EBQCf9kwFH2nIfT-102" value="job_category" style="swimlane;childLayout=stackLayout;horizontal=1;startSize=50;horizontalStack=0;rounded=1;fontSize=14;fontStyle=0;strokeWidth=2;resizeParent=0;resizeLast=1;shadow=0;dashed=0;align=center;arcSize=4;whiteSpace=wrap;html=1;" vertex="1" parent="1">
          <mxGeometry x="790" y="20" width="160" height="120" as="geometry" />
        </mxCell>
        <mxCell id="Uzpc0EBQCf9kwFH2nIfT-103" value="&lt;div&gt;&lt;u&gt;job_category_id&lt;/u&gt;&lt;/div&gt;&lt;div&gt;name&lt;br&gt;&lt;/div&gt;" style="align=left;strokeColor=none;fillColor=none;spacingLeft=4;fontSize=12;verticalAlign=top;resizable=0;rotatable=0;part=1;html=1;" vertex="1" parent="Uzpc0EBQCf9kwFH2nIfT-102">
          <mxGeometry y="50" width="160" height="70" as="geometry" />
        </mxCell>
        <mxCell id="Uzpc0EBQCf9kwFH2nIfT-111" style="edgeStyle=orthogonalEdgeStyle;rounded=0;orthogonalLoop=1;jettySize=auto;html=1;exitX=0.5;exitY=0;exitDx=0;exitDy=0;entryX=0.25;entryY=1;entryDx=0;entryDy=0;endArrow=none;endFill=0;" edge="1" parent="1" source="Uzpc0EBQCf9kwFH2nIfT-106" target="Uzpc0EBQCf9kwFH2nIfT-101">
          <mxGeometry relative="1" as="geometry" />
        </mxCell>
        <mxCell id="Uzpc0EBQCf9kwFH2nIfT-106" value="crew_media" style="shape=rhombus;perimeter=rhombusPerimeter;whiteSpace=wrap;html=1;align=center;" vertex="1" parent="1">
          <mxGeometry x="610" y="380" width="120" height="60" as="geometry" />
        </mxCell>
        <mxCell id="Uzpc0EBQCf9kwFH2nIfT-107" value="crew_person" style="shape=rhombus;perimeter=rhombusPerimeter;whiteSpace=wrap;html=1;align=center;" vertex="1" parent="1">
          <mxGeometry x="830" y="230" width="120" height="60" as="geometry" />
        </mxCell>
        <mxCell id="Uzpc0EBQCf9kwFH2nIfT-108" style="edgeStyle=orthogonalEdgeStyle;rounded=0;orthogonalLoop=1;jettySize=auto;html=1;exitX=0;exitY=0.5;exitDx=0;exitDy=0;entryX=1.022;entryY=0.052;entryDx=0;entryDy=0;entryPerimeter=0;endArrow=none;endFill=0;" edge="1" parent="1" source="Uzpc0EBQCf9kwFH2nIfT-106" target="Uzpc0EBQCf9kwFH2nIfT-59">
          <mxGeometry relative="1" as="geometry" />
        </mxCell>
        <mxCell id="Uzpc0EBQCf9kwFH2nIfT-109" style="edgeStyle=orthogonalEdgeStyle;rounded=0;orthogonalLoop=1;jettySize=auto;html=1;exitX=0;exitY=0.5;exitDx=0;exitDy=0;entryX=1.014;entryY=0.129;entryDx=0;entryDy=0;entryPerimeter=0;endArrow=none;endFill=0;" edge="1" parent="1" source="Uzpc0EBQCf9kwFH2nIfT-107" target="Uzpc0EBQCf9kwFH2nIfT-101">
          <mxGeometry relative="1" as="geometry" />
        </mxCell>
        <mxCell id="Uzpc0EBQCf9kwFH2nIfT-110" style="edgeStyle=orthogonalEdgeStyle;rounded=0;orthogonalLoop=1;jettySize=auto;html=1;exitX=0.5;exitY=1;exitDx=0;exitDy=0;entryX=0.623;entryY=0.006;entryDx=0;entryDy=0;entryPerimeter=0;endArrow=none;endFill=0;" edge="1" parent="1" source="Uzpc0EBQCf9kwFH2nIfT-107" target="Uzpc0EBQCf9kwFH2nIfT-91">
          <mxGeometry relative="1" as="geometry" />
        </mxCell>
        <mxCell id="Uzpc0EBQCf9kwFH2nIfT-113" style="edgeStyle=orthogonalEdgeStyle;rounded=0;orthogonalLoop=1;jettySize=auto;html=1;exitX=1;exitY=0.5;exitDx=0;exitDy=0;entryX=0;entryY=0.25;entryDx=0;entryDy=0;endArrow=none;endFill=0;" edge="1" parent="1" source="Uzpc0EBQCf9kwFH2nIfT-112" target="Uzpc0EBQCf9kwFH2nIfT-103">
          <mxGeometry relative="1" as="geometry" />
        </mxCell>
        <mxCell id="Uzpc0EBQCf9kwFH2nIfT-112" value="crew_job" style="shape=rhombus;perimeter=rhombusPerimeter;whiteSpace=wrap;html=1;align=center;" vertex="1" parent="1">
          <mxGeometry x="620" y="50" width="120" height="60" as="geometry" />
        </mxCell>
        <mxCell id="Uzpc0EBQCf9kwFH2nIfT-114" style="edgeStyle=orthogonalEdgeStyle;rounded=0;orthogonalLoop=1;jettySize=auto;html=1;exitX=0.5;exitY=1;exitDx=0;exitDy=0;endArrow=none;endFill=0;" edge="1" parent="1" source="Uzpc0EBQCf9kwFH2nIfT-112">
          <mxGeometry relative="1" as="geometry">
            <mxPoint x="681" y="200" as="targetPoint" />
          </mxGeometry>
        </mxCell>
        <mxCell id="Uzpc0EBQCf9kwFH2nIfT-115" value="release" style="swimlane;childLayout=stackLayout;horizontal=1;startSize=50;horizontalStack=0;rounded=1;fontSize=14;fontStyle=0;strokeWidth=2;resizeParent=0;resizeLast=1;shadow=0;dashed=0;align=center;arcSize=4;whiteSpace=wrap;html=1;" vertex="1" parent="1">
          <mxGeometry x="720" y="710" width="160" height="160" as="geometry" />
        </mxCell>
        <mxCell id="Uzpc0EBQCf9kwFH2nIfT-116" value="&lt;div&gt;&lt;u&gt;release_id&lt;/u&gt;&lt;/div&gt;&lt;div&gt;title&lt;/div&gt;&lt;div&gt;release_date&lt;/div&gt;&lt;div&gt;rated&lt;/div&gt;&lt;div&gt;type&lt;/div&gt;" style="align=left;strokeColor=none;fillColor=none;spacingLeft=4;fontSize=12;verticalAlign=top;resizable=0;rotatable=0;part=1;html=1;" vertex="1" parent="Uzpc0EBQCf9kwFH2nIfT-115">
          <mxGeometry y="50" width="160" height="110" as="geometry" />
        </mxCell>
        <mxCell id="Uzpc0EBQCf9kwFH2nIfT-117" value="released_media" style="shape=rhombus;perimeter=rhombusPerimeter;whiteSpace=wrap;html=1;align=center;" vertex="1" parent="1">
          <mxGeometry x="540" y="740" width="120" height="60" as="geometry" />
        </mxCell>
        <mxCell id="Uzpc0EBQCf9kwFH2nIfT-118" style="edgeStyle=orthogonalEdgeStyle;rounded=0;orthogonalLoop=1;jettySize=auto;html=1;exitX=0.5;exitY=0;exitDx=0;exitDy=0;entryX=1;entryY=0.75;entryDx=0;entryDy=0;" edge="1" parent="1" source="Uzpc0EBQCf9kwFH2nIfT-117" target="Uzpc0EBQCf9kwFH2nIfT-60">
          <mxGeometry relative="1" as="geometry" />
        </mxCell>
        <mxCell id="Uzpc0EBQCf9kwFH2nIfT-119" style="edgeStyle=orthogonalEdgeStyle;rounded=0;orthogonalLoop=1;jettySize=auto;html=1;exitX=1;exitY=0.5;exitDx=0;exitDy=0;entryX=-0.017;entryY=0.093;entryDx=0;entryDy=0;entryPerimeter=0;endArrow=none;endFill=0;" edge="1" parent="1" source="Uzpc0EBQCf9kwFH2nIfT-117" target="Uzpc0EBQCf9kwFH2nIfT-116">
          <mxGeometry relative="1" as="geometry" />
        </mxCell>
        <mxCell id="Uzpc0EBQCf9kwFH2nIfT-121" value="media_prod_country" style="shape=rhombus;perimeter=rhombusPerimeter;whiteSpace=wrap;html=1;align=center;" vertex="1" parent="1">
          <mxGeometry x="530" y="1070" width="120" height="60" as="geometry" />
        </mxCell>
        <mxCell id="Uzpc0EBQCf9kwFH2nIfT-123" style="edgeStyle=orthogonalEdgeStyle;rounded=0;orthogonalLoop=1;jettySize=auto;html=1;exitX=0;exitY=0.5;exitDx=0;exitDy=0;entryX=0.85;entryY=0.986;entryDx=0;entryDy=0;entryPerimeter=0;endArrow=none;endFill=0;" edge="1" parent="1" source="Uzpc0EBQCf9kwFH2nIfT-121" target="Uzpc0EBQCf9kwFH2nIfT-60">
          <mxGeometry relative="1" as="geometry">
            <mxPoint x="495" y="600" as="targetPoint" />
          </mxGeometry>
        </mxCell>
        <mxCell id="Uzpc0EBQCf9kwFH2nIfT-124" value="Country" style="swimlane;childLayout=stackLayout;horizontal=1;startSize=50;horizontalStack=0;rounded=1;fontSize=14;fontStyle=0;strokeWidth=2;resizeParent=0;resizeLast=1;shadow=0;dashed=0;align=center;arcSize=4;whiteSpace=wrap;html=1;" vertex="1" parent="1">
          <mxGeometry x="720" y="1030" width="160" height="120" as="geometry" />
        </mxCell>
        <mxCell id="Uzpc0EBQCf9kwFH2nIfT-125" value="&lt;div&gt;&lt;u&gt;country_id&lt;/u&gt;&lt;br&gt;&lt;/div&gt;&lt;div&gt;imdb_country_code&lt;/div&gt;&lt;div&gt;iso_code&lt;/div&gt;&lt;div&gt;name&lt;br&gt;&lt;/div&gt;" style="align=left;strokeColor=none;fillColor=none;spacingLeft=4;fontSize=12;verticalAlign=top;resizable=0;rotatable=0;part=1;html=1;" vertex="1" parent="Uzpc0EBQCf9kwFH2nIfT-124">
          <mxGeometry y="50" width="160" height="70" as="geometry" />
        </mxCell>
        <mxCell id="Uzpc0EBQCf9kwFH2nIfT-126" style="edgeStyle=orthogonalEdgeStyle;rounded=0;orthogonalLoop=1;jettySize=auto;html=1;exitX=1;exitY=0.5;exitDx=0;exitDy=0;entryX=-0.002;entryY=0.379;entryDx=0;entryDy=0;entryPerimeter=0;endArrow=none;endFill=0;" edge="1" parent="1" source="Uzpc0EBQCf9kwFH2nIfT-121" target="Uzpc0EBQCf9kwFH2nIfT-125">
          <mxGeometry relative="1" as="geometry" />
        </mxCell>
        <mxCell id="Uzpc0EBQCf9kwFH2nIfT-128" style="edgeStyle=orthogonalEdgeStyle;rounded=0;orthogonalLoop=1;jettySize=auto;html=1;exitX=0.5;exitY=1;exitDx=0;exitDy=0;entryX=0.5;entryY=0;entryDx=0;entryDy=0;" edge="1" parent="1" source="Uzpc0EBQCf9kwFH2nIfT-127" target="Uzpc0EBQCf9kwFH2nIfT-124">
          <mxGeometry relative="1" as="geometry" />
        </mxCell>
        <mxCell id="Uzpc0EBQCf9kwFH2nIfT-129" style="edgeStyle=orthogonalEdgeStyle;rounded=0;orthogonalLoop=1;jettySize=auto;html=1;exitX=0.5;exitY=0;exitDx=0;exitDy=0;entryX=0.5;entryY=1;entryDx=0;entryDy=0;endArrow=none;endFill=0;" edge="1" parent="1" source="Uzpc0EBQCf9kwFH2nIfT-127" target="Uzpc0EBQCf9kwFH2nIfT-116">
          <mxGeometry relative="1" as="geometry" />
        </mxCell>
        <mxCell id="Uzpc0EBQCf9kwFH2nIfT-127" value="release_country" style="shape=rhombus;perimeter=rhombusPerimeter;whiteSpace=wrap;html=1;align=center;" vertex="1" parent="1">
          <mxGeometry x="740" y="920" width="120" height="60" as="geometry" />
        </mxCell>
        <mxCell id="Uzpc0EBQCf9kwFH2nIfT-130" value="Language" style="swimlane;childLayout=stackLayout;horizontal=1;startSize=50;horizontalStack=0;rounded=1;fontSize=14;fontStyle=0;strokeWidth=2;resizeParent=0;resizeLast=1;shadow=0;dashed=0;align=center;arcSize=4;whiteSpace=wrap;html=1;" vertex="1" parent="1">
          <mxGeometry x="1180" y="730" width="160" height="120" as="geometry" />
        </mxCell>
        <mxCell id="Uzpc0EBQCf9kwFH2nIfT-131" value="&lt;div&gt;language_id&lt;/div&gt;&lt;div&gt;imdb_language_id&lt;/div&gt;&lt;div&gt;iso_code&lt;/div&gt;&lt;div&gt;name&lt;br&gt;&lt;/div&gt;" style="align=left;strokeColor=none;fillColor=none;spacingLeft=4;fontSize=12;verticalAlign=top;resizable=0;rotatable=0;part=1;html=1;" vertex="1" parent="Uzpc0EBQCf9kwFH2nIfT-130">
          <mxGeometry y="50" width="160" height="70" as="geometry" />
        </mxCell>
        <mxCell id="Uzpc0EBQCf9kwFH2nIfT-134" style="edgeStyle=orthogonalEdgeStyle;rounded=0;orthogonalLoop=1;jettySize=auto;html=1;entryX=0;entryY=0.25;entryDx=0;entryDy=0;endArrow=none;endFill=0;" edge="1" parent="1" source="Uzpc0EBQCf9kwFH2nIfT-132" target="Uzpc0EBQCf9kwFH2nIfT-131">
          <mxGeometry relative="1" as="geometry" />
        </mxCell>
        <mxCell id="Uzpc0EBQCf9kwFH2nIfT-132" value="spoken_language" style="shape=rhombus;perimeter=rhombusPerimeter;whiteSpace=wrap;html=1;align=center;" vertex="1" parent="1">
          <mxGeometry x="990" y="770" width="120" height="60" as="geometry" />
        </mxCell>
        <mxCell id="Uzpc0EBQCf9kwFH2nIfT-133" style="edgeStyle=orthogonalEdgeStyle;rounded=0;orthogonalLoop=1;jettySize=auto;html=1;exitX=0;exitY=0.5;exitDx=0;exitDy=0;entryX=1.006;entryY=0.366;entryDx=0;entryDy=0;entryPerimeter=0;endArrow=none;endFill=0;" edge="1" parent="1" source="Uzpc0EBQCf9kwFH2nIfT-132" target="Uzpc0EBQCf9kwFH2nIfT-116">
          <mxGeometry relative="1" as="geometry" />
        </mxCell>
        <mxCell id="Uzpc0EBQCf9kwFH2nIfT-136" value="user" style="swimlane;childLayout=stackLayout;horizontal=1;startSize=50;horizontalStack=0;rounded=1;fontSize=14;fontStyle=0;strokeWidth=2;resizeParent=0;resizeLast=1;shadow=0;dashed=0;align=center;arcSize=4;whiteSpace=wrap;html=1;" vertex="1" parent="1">
          <mxGeometry x="310" y="1800" width="160" height="120" as="geometry" />
        </mxCell>
        <mxCell id="Uzpc0EBQCf9kwFH2nIfT-137" value="&lt;div&gt;&lt;u&gt;user_id&lt;/u&gt;&lt;/div&gt;&lt;div&gt;username&lt;/div&gt;&lt;div&gt;password&lt;/div&gt;&lt;div&gt;email&lt;br&gt;&lt;/div&gt;" style="align=left;strokeColor=none;fillColor=none;spacingLeft=4;fontSize=12;verticalAlign=top;resizable=0;rotatable=0;part=1;html=1;" vertex="1" parent="Uzpc0EBQCf9kwFH2nIfT-136">
          <mxGeometry y="50" width="160" height="70" as="geometry" />
        </mxCell>
        <mxCell id="Uzpc0EBQCf9kwFH2nIfT-147" value="search_history" style="swimlane;childLayout=stackLayout;horizontal=1;startSize=50;horizontalStack=0;rounded=1;fontSize=14;fontStyle=0;strokeWidth=2;resizeParent=0;resizeLast=1;shadow=0;dashed=0;align=center;arcSize=4;whiteSpace=wrap;html=1;" vertex="1" parent="1">
          <mxGeometry x="310" y="2100" width="160" height="110" as="geometry" />
        </mxCell>
        <mxCell id="Uzpc0EBQCf9kwFH2nIfT-148" value="&lt;div&gt;&lt;u&gt;search_history_id&lt;/u&gt;&lt;/div&gt;&lt;div&gt;type&lt;/div&gt;&lt;div&gt;query&lt;br&gt;&lt;/div&gt;" style="align=left;strokeColor=none;fillColor=none;spacingLeft=4;fontSize=12;verticalAlign=top;resizable=0;rotatable=0;part=1;html=1;" vertex="1" parent="Uzpc0EBQCf9kwFH2nIfT-147">
          <mxGeometry y="50" width="160" height="60" as="geometry" />
        </mxCell>
        <mxCell id="Uzpc0EBQCf9kwFH2nIfT-151" style="edgeStyle=orthogonalEdgeStyle;rounded=0;orthogonalLoop=1;jettySize=auto;html=1;exitX=0.5;exitY=1;exitDx=0;exitDy=0;entryX=0.5;entryY=0;entryDx=0;entryDy=0;endArrow=none;endFill=0;" edge="1" parent="1" source="Uzpc0EBQCf9kwFH2nIfT-149" target="Uzpc0EBQCf9kwFH2nIfT-147">
          <mxGeometry relative="1" as="geometry" />
        </mxCell>
        <mxCell id="Uzpc0EBQCf9kwFH2nIfT-152" style="edgeStyle=orthogonalEdgeStyle;rounded=0;orthogonalLoop=1;jettySize=auto;html=1;exitX=0.5;exitY=0;exitDx=0;exitDy=0;entryX=0.5;entryY=1;entryDx=0;entryDy=0;" edge="1" parent="1" source="Uzpc0EBQCf9kwFH2nIfT-149" target="Uzpc0EBQCf9kwFH2nIfT-137">
          <mxGeometry relative="1" as="geometry" />
        </mxCell>
        <mxCell id="Uzpc0EBQCf9kwFH2nIfT-149" value="&lt;div&gt;user_search&lt;/div&gt;" style="shape=rhombus;perimeter=rhombusPerimeter;whiteSpace=wrap;html=1;align=center;" vertex="1" parent="1">
          <mxGeometry x="330" y="1980" width="120" height="60" as="geometry" />
        </mxCell>
        <mxCell id="Uzpc0EBQCf9kwFH2nIfT-172" style="edgeStyle=orthogonalEdgeStyle;rounded=0;orthogonalLoop=1;jettySize=auto;html=1;exitX=0.5;exitY=0;exitDx=0;exitDy=0;entryX=0;entryY=0.5;entryDx=0;entryDy=0;endArrow=none;endFill=0;" edge="1" parent="1" source="Uzpc0EBQCf9kwFH2nIfT-154" target="Uzpc0EBQCf9kwFH2nIfT-158">
          <mxGeometry relative="1" as="geometry" />
        </mxCell>
        <mxCell id="Uzpc0EBQCf9kwFH2nIfT-183" style="edgeStyle=orthogonalEdgeStyle;rounded=0;orthogonalLoop=1;jettySize=auto;html=1;exitX=0.5;exitY=1;exitDx=0;exitDy=0;entryX=0;entryY=0.25;entryDx=0;entryDy=0;endArrow=none;endFill=0;" edge="1" parent="1" source="Uzpc0EBQCf9kwFH2nIfT-154" target="Uzpc0EBQCf9kwFH2nIfT-137">
          <mxGeometry relative="1" as="geometry" />
        </mxCell>
        <mxCell id="Uzpc0EBQCf9kwFH2nIfT-185" style="edgeStyle=orthogonalEdgeStyle;rounded=0;orthogonalLoop=1;jettySize=auto;html=1;exitX=1;exitY=0.5;exitDx=0;exitDy=0;entryX=0;entryY=0.5;entryDx=0;entryDy=0;endArrow=none;endFill=0;dashed=1;dashPattern=8 8;" edge="1" parent="1" source="Uzpc0EBQCf9kwFH2nIfT-154" target="Uzpc0EBQCf9kwFH2nIfT-184">
          <mxGeometry relative="1" as="geometry" />
        </mxCell>
        <mxCell id="Uzpc0EBQCf9kwFH2nIfT-154" value="media_score" style="shape=rhombus;perimeter=rhombusPerimeter;whiteSpace=wrap;html=1;align=center;" vertex="1" parent="1">
          <mxGeometry x="100" y="1620" width="120" height="60" as="geometry" />
        </mxCell>
        <mxCell id="Uzpc0EBQCf9kwFH2nIfT-173" style="edgeStyle=orthogonalEdgeStyle;rounded=0;orthogonalLoop=1;jettySize=auto;html=1;exitX=0.5;exitY=0;exitDx=0;exitDy=0;entryX=1;entryY=0.5;entryDx=0;entryDy=0;endArrow=none;endFill=0;" edge="1" parent="1" source="Uzpc0EBQCf9kwFH2nIfT-155" target="Uzpc0EBQCf9kwFH2nIfT-158">
          <mxGeometry relative="1" as="geometry" />
        </mxCell>
        <mxCell id="Uzpc0EBQCf9kwFH2nIfT-175" style="edgeStyle=orthogonalEdgeStyle;rounded=0;orthogonalLoop=1;jettySize=auto;html=1;exitX=0.5;exitY=1;exitDx=0;exitDy=0;entryX=1;entryY=0.25;entryDx=0;entryDy=0;endArrow=none;endFill=0;" edge="1" parent="1" source="Uzpc0EBQCf9kwFH2nIfT-155" target="Uzpc0EBQCf9kwFH2nIfT-137">
          <mxGeometry relative="1" as="geometry" />
        </mxCell>
        <mxCell id="Uzpc0EBQCf9kwFH2nIfT-155" value="bookmark" style="shape=rhombus;perimeter=rhombusPerimeter;whiteSpace=wrap;html=1;align=center;" vertex="1" parent="1">
          <mxGeometry x="550" y="1620" width="120" height="60" as="geometry" />
        </mxCell>
        <mxCell id="Uzpc0EBQCf9kwFH2nIfT-174" style="edgeStyle=orthogonalEdgeStyle;rounded=0;orthogonalLoop=1;jettySize=auto;html=1;exitX=0.5;exitY=0;exitDx=0;exitDy=0;entryX=0.5;entryY=1;entryDx=0;entryDy=0;endArrow=none;endFill=0;" edge="1" parent="1" source="Uzpc0EBQCf9kwFH2nIfT-156" target="Uzpc0EBQCf9kwFH2nIfT-158">
          <mxGeometry relative="1" as="geometry" />
        </mxCell>
        <mxCell id="Uzpc0EBQCf9kwFH2nIfT-156" value="watched" style="shape=rhombus;perimeter=rhombusPerimeter;whiteSpace=wrap;html=1;align=center;" vertex="1" parent="1">
          <mxGeometry x="315" y="1530" width="120" height="60" as="geometry" />
        </mxCell>
        <mxCell id="Uzpc0EBQCf9kwFH2nIfT-158" value="&lt;div&gt;media&lt;/div&gt;" style="rounded=1;arcSize=10;whiteSpace=wrap;html=1;align=center;fillColor=#f8cecc;strokeColor=#b85450;" vertex="1" parent="1">
          <mxGeometry x="325" y="1170" width="100" height="40" as="geometry" />
        </mxCell>
        <mxCell id="Uzpc0EBQCf9kwFH2nIfT-178" style="edgeStyle=orthogonalEdgeStyle;rounded=0;orthogonalLoop=1;jettySize=auto;html=1;exitX=0;exitY=0.5;exitDx=0;exitDy=0;entryX=1;entryY=0.5;entryDx=0;entryDy=0;dashed=1;endArrow=none;endFill=0;" edge="1" parent="1" source="Uzpc0EBQCf9kwFH2nIfT-177" target="Uzpc0EBQCf9kwFH2nIfT-155">
          <mxGeometry relative="1" as="geometry" />
        </mxCell>
        <mxCell id="Uzpc0EBQCf9kwFH2nIfT-177" value="note" style="whiteSpace=wrap;html=1;align=center;" vertex="1" parent="1">
          <mxGeometry x="710" y="1630" width="100" height="40" as="geometry" />
        </mxCell>
        <mxCell id="Uzpc0EBQCf9kwFH2nIfT-179" style="edgeStyle=orthogonalEdgeStyle;rounded=0;orthogonalLoop=1;jettySize=auto;html=1;exitX=0.5;exitY=1;exitDx=0;exitDy=0;entryX=0.408;entryY=0.028;entryDx=0;entryDy=0;entryPerimeter=0;endArrow=none;endFill=0;" edge="1" parent="1" source="Uzpc0EBQCf9kwFH2nIfT-156" target="Uzpc0EBQCf9kwFH2nIfT-136">
          <mxGeometry relative="1" as="geometry" />
        </mxCell>
        <mxCell id="Uzpc0EBQCf9kwFH2nIfT-181" style="edgeStyle=orthogonalEdgeStyle;rounded=0;orthogonalLoop=1;jettySize=auto;html=1;exitX=0;exitY=0.5;exitDx=0;exitDy=0;entryX=1;entryY=0.5;entryDx=0;entryDy=0;endArrow=none;endFill=0;dashed=1;dashPattern=8 8;" edge="1" parent="1" source="Uzpc0EBQCf9kwFH2nIfT-180" target="Uzpc0EBQCf9kwFH2nIfT-156">
          <mxGeometry relative="1" as="geometry" />
        </mxCell>
        <mxCell id="Uzpc0EBQCf9kwFH2nIfT-180" value="&lt;div&gt;completed_date&lt;/div&gt;&lt;div&gt;rewatchability&lt;/div&gt;&lt;div&gt;note&lt;br&gt;&lt;/div&gt;" style="whiteSpace=wrap;html=1;align=center;" vertex="1" parent="1">
          <mxGeometry x="470" y="1540" width="100" height="40" as="geometry" />
        </mxCell>
        <mxCell id="Uzpc0EBQCf9kwFH2nIfT-184" value="&lt;div&gt;score_val&lt;/div&gt;&lt;div&gt;review_text&lt;/div&gt;&lt;div&gt;created_at&lt;br&gt;&lt;/div&gt;" style="whiteSpace=wrap;html=1;align=center;" vertex="1" parent="1">
          <mxGeometry x="250" y="1630" width="100" height="40" as="geometry" />
        </mxCell>
      </root>
    </mxGraphModel>
  </diagram>
</mxfile>
